<svg width="16" height="16" viewBox="0 0 16 16" fill="none" xmlns="http://www.w3.org/2000/svg">
<path fill-rule="evenodd" clip-rule="evenodd" d="M15.5008 1.125C15.5008 0.95924 15.4349 0.800269 15.3177 0.683058C15.2005 0.565848 15.0415 0.5 14.8758 0.5H7.37579C7.21003 0.5 7.05106 0.565848 6.93385 0.683058C6.81664 0.800269 6.75079 0.95924 6.75079 1.125C6.75079 1.29076 6.81664 1.44973 6.93385 1.56694C7.05106 1.68415 7.21003 1.75 7.37579 1.75H13.367L0.683289 14.4325C0.625179 14.4906 0.579084 14.5596 0.547635 14.6355C0.516187 14.7114 0.5 14.7928 0.5 14.875C0.5 14.9572 0.516187 15.0386 0.547635 15.1145C0.579084 15.1904 0.625179 15.2594 0.683289 15.3175C0.741399 15.3756 0.810386 15.4217 0.88631 15.4532C0.962234 15.4846 1.04361 15.5008 1.12579 15.5008C1.20797 15.5008 1.28934 15.4846 1.36527 15.4532C1.44119 15.4217 1.51018 15.3756 1.56829 15.3175L14.2508 2.63375V8.625C14.2508 8.79076 14.3166 8.94973 14.4338 9.06694C14.5511 9.18415 14.71 9.25 14.8758 9.25C15.0415 9.25 15.2005 9.18415 15.3177 9.06694C15.4349 8.94973 15.5008 8.79076 15.5008 8.625V1.125Z" fill="#57A203"/>
</svg>
