<svg width="25" height="24" viewBox="0 0 25 24" fill="none" xmlns="http://www.w3.org/2000/svg">
<path d="M19.6032 5.9549C19.7056 5.85045 19.8278 5.76747 19.9626 5.71082C20.0975 5.65418 20.2422 5.625 20.3885 5.625C20.5347 5.625 20.6795 5.65418 20.8144 5.71082C20.9492 5.76747 21.0714 5.85045 21.1737 5.9549C21.6027 6.3884 21.6087 7.0889 21.1887 7.5299L12.3192 18.0149C12.2185 18.1255 12.0963 18.2144 11.9601 18.2761C11.8239 18.3378 11.6765 18.3711 11.5269 18.3739C11.3774 18.3767 11.2289 18.349 11.0904 18.2924C10.952 18.2358 10.8265 18.1516 10.7217 18.0449L5.32474 12.5759C5.11659 12.3636 5 12.0782 5 11.7809C5 11.4836 5.11659 11.1982 5.32474 10.9859C5.42711 10.8814 5.54929 10.7985 5.68412 10.7418C5.81896 10.6852 5.96374 10.656 6.10999 10.656C6.25624 10.656 6.40102 10.6852 6.53586 10.7418C6.67069 10.7985 6.79287 10.8814 6.89524 10.9859L11.4732 15.6254L19.5732 5.9879C19.5826 5.97631 19.5926 5.96529 19.6032 5.9549Z" fill="#477A11"/>
</svg>
